# xmcd
#
# Track frame offsets: 
#        150
#        13310
#        25711
#        45969
#        59632
#        72209
#        88232
#        106866
#        117869
#        133281
#        145048
#        163516
#
# Disc length: 2402 seconds
#
# Revision: 0
# Processed by: cddbd v1.5.2PL0 Copyright (c) Steve Scherf et al.
# Submitted via: ExactAudioCopyFreeDBPlugin 1.0
#
DISCID=a209600c
DTITLE=Silvertones - You Got Me Spinnin'
DYEAR=2011
DGENRE=Blues
TTITLE0=You Got Me Spinnin'
TTITLE1=My Sweet Little Angel
TTITLE2=Silver Moon
TTITLE3=Uh-Huh
TTITLE4=Learning About Love
TTITLE5=B.A.D.
TTITLE6=No You Can't Just Bring Back Yesterday
TTITLE7=I Ain't Done Cryin' Yet
TTITLE8=Going Back To Cowtown
TTITLE9=What You Got
TTITLE10=Gonna Leave You Now
TTITLE11=Can't Nobody Chase These Blues away
EXTD=
EXTT0=
EXTT1=
EXTT2=
EXTT3=
EXTT4=
EXTT5=
EXTT6=
EXTT7=
EXTT8=
EXTT9=
EXTT10=
EXTT11=
PLAYORDER=
